<svg width="25" height="24" viewBox="0 0 25 24" fill="none" xmlns="http://www.w3.org/2000/svg">
<rect x="0.0292969" width="24" height="24" rx="10" fill="#10B981"/>
<path d="M10.0293 13C11.6862 13 13.0293 11.6569 13.0293 10C13.0293 8.34315 11.6862 7 10.0293 7C8.37244 7 7.0293 8.34315 7.0293 10C7.0293 11.6569 8.37244 13 10.0293 13Z" stroke="white" stroke-linecap="round" stroke-linejoin="round"/>
<path d="M15.0742 11.1846C15.5469 11.3608 15.9675 11.6533 16.2971 12.0352C16.6267 12.417 16.8548 12.8758 16.9601 13.3691C17.0654 13.8624 17.0447 14.3743 16.8997 14.8575C16.7548 15.3407 16.4904 15.7795 16.1309 16.1334C15.7715 16.4873 15.3286 16.7448 14.8432 16.8822C14.3578 17.0196 13.8457 17.0323 13.3541 16.9193C12.8625 16.8063 12.4073 16.5711 12.0306 16.2356C11.654 15.9 11.368 15.4749 11.1992 14.9996" stroke="white" stroke-linecap="round" stroke-linejoin="round"/>
<path d="M9.5293 9H10.0293V11" stroke="white" stroke-linecap="round" stroke-linejoin="round"/>
<path d="M14.3842 12.9404L14.7342 13.2954L13.3242 14.7054" stroke="white" stroke-linecap="round" stroke-linejoin="round"/>
</svg>
